<?xml version="1.0" standalone="no"?>
<!DOCTYPE svg PUBLIC "-//W3C//DTD SVG 20010904//EN"
 "http://www.w3.org/TR/2001/REC-SVG-20010904/DTD/svg10.dtd">
<svg version="1.0" xmlns="http://www.w3.org/2000/svg"
 width="512.000000pt" height="512.000000pt" viewBox="0 0 512.000000 512.000000"
 preserveAspectRatio="xMidYMid meet">

<g transform="translate(0.000000,512.000000) scale(0.100000,-0.100000)"
fill="#000000" stroke="none">
<path d="M1480 4615 l0 -345 325 0 325 0 0 90 0 90 -240 0 -240 0 0 165 0 165
240 0 240 0 0 90 0 90 -325 0 -325 0 0 -345z"/>
<path d="M2240 4745 l0 -215 235 0 235 0 0 -40 0 -40 -235 0 -235 0 0 -90 0
-90 325 0 325 0 0 210 0 210 -237 2 -238 3 -3 38 -3 37 240 0 241 0 0 95 0 95
-325 0 -325 0 0 -215z"/>
<path d="M2990 4745 l0 -215 235 0 235 0 0 -40 0 -40 -235 0 -235 0 0 -90 0
-90 325 0 325 0 0 210 0 210 -240 0 -240 0 0 40 0 40 240 0 240 0 0 95 0 95
-325 0 -325 0 0 -215z"/>
<path d="M706 3883 c8 -71 284 -3292 284 -3317 0 -20 18 -38 98 -94 342 -243
721 -390 1153 -448 166 -22 472 -22 638 0 432 58 811 205 1153 448 80 56 98
74 98 94 0 25 276 3246 284 3317 l4 37 -1858 0 -1858 0 4 -37z m3014 -740 c0
-54 -34 -443 -39 -451 -3 -5 -206 -111 -451 -235 l-445 -227 428 0 427 0 0
-35 c0 -27 -103 -1274 -112 -1364 -3 -22 -30 -31 -473 -157 -258 -73 -478
-133 -487 -134 -21 0 -936 256 -958 269 -12 6 -21 74 -42 322 -14 173 -27 335
-27 362 l-1 47 243 -2 242 -3 7 -160 c4 -88 9 -171 10 -184 3 -22 21 -28 258
-95 l255 -72 249 68 c136 37 249 68 251 70 1 2 12 113 24 248 12 135 24 264
27 288 l5 42 -795 0 -795 0 -5 33 c-7 40 -36 402 -36 439 0 27 20 38 438 247
l437 220 -457 0 -457 1 -5 43 c-8 54 -36 390 -36 423 l0 24 1160 0 1160 0 0
-27z"/>
</g>
</svg>
