<?xml version="1.0" standalone="no"?>
<!DOCTYPE svg PUBLIC "-//W3C//DTD SVG 20010904//EN"
 "http://www.w3.org/TR/2001/REC-SVG-20010904/DTD/svg10.dtd">
<svg version="1.0" xmlns="http://www.w3.org/2000/svg"
 width="512.000000pt" height="512.000000pt" viewBox="0 0 512.000000 512.000000"
 preserveAspectRatio="xMidYMid meet">

<g transform="translate(0.000000,512.000000) scale(0.100000,-0.100000)"
fill="#1449ac" stroke="none">
<path d="M2960 5042 c-284 -164 -900 -518 -1520 -874 -355 -204 -649 -374
-653 -378 -7 -6 559 -340 576 -340 3 0 58 31 123 68 66 38 243 140 394 227
151 87 331 190 400 230 69 40 265 152 435 250 760 436 951 547 958 554 6 6
-560 342 -575 341 -1 0 -64 -36 -138 -78z"/>
<path d="M3325 4487 c-203 -118 -662 -381 -1020 -587 -357 -205 -706 -406
-775 -446 l-125 -72 -3 -331 c-1 -182 1 -331 4 -331 8 0 188 103 1424 813
l875 504 3 331 c1 183 -1 332 -5 332 -5 0 -174 -96 -378 -213z"/>
<path d="M3800 3612 l0 -349 268 -153 c147 -84 277 -160 290 -168 l22 -14 -2
352 -3 352 -225 130 c-124 71 -253 145 -287 165 l-63 35 0 -350z"/>
<path d="M3283 3687 l-423 -242 0 -332 c0 -183 2 -333 4 -333 4 0 392 222 784
448 l62 36 0 333 c0 183 -1 333 -2 333 -2 0 -193 -109 -425 -243z"/>
<path d="M732 3378 l3 -332 290 -167 290 -167 3 331 c1 182 -1 334 -5 338 -12
10 -571 329 -578 329 -3 0 -4 -149 -3 -332z"/>
<path d="M2615 3301 c-152 -88 -787 -454 -1057 -609 l-148 -84 0 -334 0 -334
53 30 c28 16 336 193 684 392 l632 363 1 333 c0 182 -3 332 -7 331 -5 0 -75
-40 -158 -88z"/>
<path d="M3425 3009 c-154 -89 -401 -231 -550 -317 -148 -85 -332 -190 -407
-234 l-138 -80 0 -329 c0 -181 3 -329 8 -329 10 0 30 12 652 370 300 173 584
336 633 364 l87 50 0 333 c0 183 -1 333 -2 333 -2 0 -129 -73 -283 -161z"/>
<path d="M3800 2828 l0 -333 281 -160 c154 -88 284 -162 290 -163 6 -3 8 116
7 329 l-3 333 -280 163 c-154 89 -283 162 -287 162 -5 1 -8 -149 -8 -331z"/>
<path d="M740 2608 l0 -334 283 -162 c156 -89 287 -162 291 -162 3 0 5 149 4
331 l-3 331 -220 127 c-121 70 -250 144 -287 165 l-68 38 0 -334z"/>
<path d="M3445 2243 c-330 -191 -498 -288 -1065 -614 -261 -150 -567 -326
-680 -390 -113 -65 -224 -129 -247 -143 l-43 -26 0 -330 c0 -181 2 -330 5
-330 6 0 163 90 1145 655 250 144 611 351 802 461 l348 199 0 333 c0 182 -3
332 -7 331 -5 -1 -120 -66 -258 -146z"/>
<path d="M3800 2065 c0 -179 -1 -328 -1 -332 -1 -6 577 -343 588 -343 1 0 3
148 3 330 l0 330 -37 24 c-36 23 -483 280 -530 305 l-23 12 0 -326z"/>
<path d="M2015 2196 c-126 -74 -315 -183 -420 -243 l-190 -109 -3 -332 c-1
-183 0 -332 3 -332 3 0 195 108 425 241 l420 241 0 334 c0 184 -1 334 -2 333
-2 0 -106 -60 -233 -133z"/>
<path d="M740 1818 l0 -354 283 -162 c155 -89 285 -162 290 -162 4 0 7 159 7
353 l0 352 -38 21 c-20 11 -144 82 -276 158 -131 76 -245 140 -252 143 -12 4
-14 -53 -14 -349z"/>
<path d="M2905 1175 c-780 -450 -1062 -612 -1338 -771 -106 -61 -108 -63 -85
-77 12 -8 131 -76 263 -152 132 -75 252 -145 267 -156 l27 -19 263 151 c463
267 570 328 1293 744 391 224 718 413 727 420 14 9 -27 36 -269 176 -157 90
-291 165 -297 166 -6 1 -389 -216 -851 -482z"/>
</g>
</svg>
