<?xml version="1.0" standalone="no"?>
<!DOCTYPE svg PUBLIC "-//W3C//DTD SVG 20010904//EN"
 "http://www.w3.org/TR/2001/REC-SVG-20010904/DTD/svg10.dtd">
<svg version="1.0" xmlns="http://www.w3.org/2000/svg"
 width="348.000000pt" height="348.000000pt" viewBox="0 0 348.000000 348.000000"
 preserveAspectRatio="xMidYMid meet">

<g transform="translate(0.000000,348.000000) scale(0.100000,-0.100000)"
fill="#000000" stroke="none">
<path d="M1575 2996 c-139 -39 -249 -103 -349 -203 -277 -276 -363 -782 -211
-1239 14 -43 51 -130 81 -193 48 -102 53 -118 44 -144 -45 -132 67 -270 206
-254 96 10 164 89 164 189 0 102 -66 176 -167 187 l-58 6 -48 95 c-94 188
-131 350 -130 575 0 239 44 402 153 567 89 136 209 219 366 254 243 54 436
-52 566 -311 32 -63 75 -198 83 -262 l7 -48 80 -23 c45 -12 83 -20 86 -18 9 9
-30 209 -55 285 -85 253 -246 435 -458 517 -59 23 -89 28 -190 30 -82 3 -136
-1 -170 -10z"/>
<path d="M1505 2205 c-50 -17 -112 -85 -121 -132 -28 -147 93 -269 229 -232
50 13 104 52 119 85 11 23 16 24 103 24 430 0 883 -256 1053 -595 99 -198 97
-389 -5 -542 -73 -110 -197 -196 -321 -222 -111 -23 -272 -8 -406 37 l-60 20
-70 -55 c-39 -30 -72 -58 -74 -62 -2 -7 117 -53 198 -75 400 -110 838 85 943
419 29 92 30 286 3 385 -43 158 -134 308 -270 444 -105 106 -196 173 -326 240
-202 104 -385 153 -614 163 l-139 6 -41 43 c-59 60 -123 76 -201 49z"/>
<path d="M718 1746 c-305 -252 -409 -643 -257 -964 35 -73 128 -176 200 -222
263 -169 656 -156 1028 35 240 123 443 325 565 561 22 42 33 53 59 58 42 8
100 56 121 100 39 82 9 194 -63 242 -102 67 -232 30 -282 -81 -28 -61 -20
-142 17 -186 22 -25 17 -41 -47 -138 -103 -156 -254 -294 -438 -398 -181 -103
-303 -141 -471 -150 -243 -13 -419 58 -518 207 -63 94 -85 159 -90 276 -4 92
-2 108 25 186 37 107 100 203 193 293 l72 69 -18 76 c-10 41 -21 78 -24 83 -3
4 -36 -17 -72 -47z"/>
</g>
</svg>
